<svg id="visual" viewBox="0 0 960 540" width="960" height="540" xmlns="http://www.w3.org/2000/svg" xmlns:xlink="http://www.w3.org/1999/xlink" version="1.1"><path d="M0 44L14.5 43.2C29 42.3 58 40.7 87.2 46.2C116.3 51.7 145.7 64.3 174.8 76C204 87.7 233 98.3 262 92.8C291 87.3 320 65.7 349 65.7C378 65.7 407 87.3 436.2 98.2C465.3 109 494.7 109 523.8 104.5C553 100 582 91 611 90.2C640 89.3 669 96.7 698 100.3C727 104 756 104 785.2 103C814.3 102 843.7 100 872.8 98.2C902 96.3 931 94.7 945.5 93.8L960 93L960 0L945.5 0C931 0 902 0 872.8 0C843.7 0 814.3 0 785.2 0C756 0 727 0 698 0C669 0 640 0 611 0C582 0 553 0 523.8 0C494.7 0 465.3 0 436.2 0C407 0 378 0 349 0C320 0 291 0 262 0C233 0 204 0 174.8 0C145.7 0 116.3 0 87.2 0C58 0 29 0 14.5 0L0 0Z" fill="#e8f0fe"></path><path d="M0 104L14.5 111.2C29 118.3 58 132.7 87.2 145.2C116.3 157.7 145.7 168.3 174.8 188.2C204 208 233 237 262 253.2C291 269.3 320 272.7 349 267.2C378 261.7 407 247.3 436.2 235.7C465.3 224 494.7 215 523.8 208.7C553 202.3 582 198.7 611 204.2C640 209.7 669 224.3 698 225.3C727 226.3 756 213.7 785.2 218.2C814.3 222.7 843.7 244.3 872.8 259.7C902 275 931 284 945.5 288.5L960 293L960 91L945.5 91.8C931 92.7 902 94.3 872.8 96.2C843.7 98 814.3 100 785.2 101C756 102 727 102 698 98.3C669 94.7 640 87.3 611 88.2C582 89 553 98 523.8 102.5C494.7 107 465.3 107 436.2 96.2C407 85.3 378 63.7 349 63.7C320 63.7 291 85.3 262 90.8C233 96.3 204 85.7 174.8 74C145.7 62.3 116.3 49.7 87.2 44.2C58 38.7 29 40.3 14.5 41.2L0 42Z" fill="#e1ebfe"></path><path d="M0 136L14.5 154.8C29 173.7 58 211.3 87.2 236.5C116.3 261.7 145.7 274.3 174.8 282.5C204 290.7 233 294.3 262 300.7C291 307 320 316 349 315.2C378 314.3 407 303.7 436.2 294.7C465.3 285.7 494.7 278.3 523.8 275.5C553 272.7 582 274.3 611 281.5C640 288.7 669 301.3 698 302.3C727 303.3 756 292.7 785.2 295.3C814.3 298 843.7 314 872.8 323.8C902 333.7 931 337.3 945.5 339.2L960 341L960 291L945.5 286.5C931 282 902 273 872.8 257.7C843.7 242.3 814.3 220.7 785.2 216.2C756 211.7 727 224.3 698 223.3C669 222.3 640 207.7 611 202.2C582 196.7 553 200.3 523.8 206.7C494.7 213 465.3 222 436.2 233.7C407 245.3 378 259.7 349 265.2C320 270.7 291 267.3 262 251.2C233 235 204 206 174.8 186.2C145.7 166.3 116.3 155.7 87.2 143.2C58 130.7 29 116.3 14.5 109.2L0 102Z" fill="#d9e7ff"></path><path d="M0 158L14.5 182.2C29 206.3 58 254.7 87.2 279.8C116.3 305 145.7 307 174.8 317C204 327 233 345 262 351.3C291 357.7 320 352.3 349 345.2C378 338 407 329 436.2 327.2C465.3 325.3 494.7 330.7 523.8 332.3C553 334 582 332 611 336.5C640 341 669 352 698 349.3C727 346.7 756 330.3 785.2 333C814.3 335.7 843.7 357.3 872.8 364.5C902 371.7 931 364.3 945.5 360.7L960 357L960 339L945.5 337.2C931 335.3 902 331.7 872.8 321.8C843.7 312 814.3 296 785.2 293.3C756 290.7 727 301.3 698 300.3C669 299.3 640 286.7 611 279.5C582 272.3 553 270.7 523.8 273.5C494.7 276.3 465.3 283.7 436.2 292.7C407 301.7 378 312.3 349 313.2C320 314 291 305 262 298.7C233 292.3 204 288.7 174.8 280.5C145.7 272.3 116.3 259.7 87.2 234.5C58 209.3 29 171.7 14.5 152.8L0 134Z" fill="#d2e2ff"></path><path d="M0 417L14.5 426C29 435 58 453 87.2 459.3C116.3 465.7 145.7 460.3 174.8 456.7C204 453 233 451 262 449.2C291 447.3 320 445.7 349 438.5C378 431.3 407 418.7 436.2 424C465.3 429.3 494.7 452.7 523.8 455.3C553 458 582 440 611 432C640 424 669 426 698 426C727 426 756 424 785.2 424.8C814.3 425.7 843.7 429.3 872.8 432C902 434.7 931 436.3 945.5 437.2L960 438L960 355L945.5 358.7C931 362.3 902 369.7 872.8 362.5C843.7 355.3 814.3 333.7 785.2 331C756 328.3 727 344.7 698 347.3C669 350 640 339 611 334.5C582 330 553 332 523.8 330.3C494.7 328.7 465.3 323.3 436.2 325.2C407 327 378 336 349 343.2C320 350.3 291 355.7 262 349.3C233 343 204 325 174.8 315C145.7 305 116.3 303 87.2 277.8C58 252.7 29 204.3 14.5 180.2L0 156Z" fill="#cbdeff"></path><path d="M0 492L14.5 495.7C29 499.3 58 506.7 87.2 506.7C116.3 506.7 145.7 499.3 174.8 495.7C204 492 233 492 262 492C291 492 320 492 349 486.7C378 481.3 407 470.7 436.2 474.3C465.3 478 494.7 496 523.8 496.8C553 497.7 582 481.3 611 473.2C640 465 669 465 698 467.8C727 470.7 756 476.3 785.2 478.2C814.3 480 843.7 478 872.8 483.3C902 488.7 931 501.3 945.5 507.7L960 514L960 436L945.5 435.2C931 434.3 902 432.7 872.8 430C843.7 427.3 814.3 423.7 785.2 422.8C756 422 727 424 698 424C669 424 640 422 611 430C582 438 553 456 523.8 453.3C494.7 450.7 465.3 427.3 436.2 422C407 416.7 378 429.3 349 436.5C320 443.7 291 445.3 262 447.2C233 449 204 451 174.8 454.7C145.7 458.3 116.3 463.7 87.2 457.3C58 451 29 433 14.5 424L0 415Z" fill="#c3d9ff"></path><path d="M0 541L14.5 541C29 541 58 541 87.2 541C116.3 541 145.7 541 174.8 541C204 541 233 541 262 541C291 541 320 541 349 541C378 541 407 541 436.2 541C465.3 541 494.7 541 523.8 541C553 541 582 541 611 541C640 541 669 541 698 541C727 541 756 541 785.2 541C814.3 541 843.7 541 872.8 541C902 541 931 541 945.5 541L960 541L960 512L945.5 505.7C931 499.3 902 486.7 872.8 481.3C843.7 476 814.3 478 785.2 476.2C756 474.3 727 468.7 698 465.8C669 463 640 463 611 471.2C582 479.3 553 495.7 523.8 494.8C494.7 494 465.3 476 436.2 472.3C407 468.7 378 479.3 349 484.7C320 490 291 490 262 490C233 490 204 490 174.8 493.7C145.7 497.3 116.3 504.7 87.2 504.7C58 504.7 29 497.3 14.5 493.7L0 490Z" fill="#bcd5ff"></path></svg>