<svg id="visual" viewBox="0 0 960 540" width="960" height="540" xmlns="http://www.w3.org/2000/svg" xmlns:xlink="http://www.w3.org/1999/xlink" version="1.1"><path d="M0 125L87 50L175 98L262 77L349 93L436 114L524 98L611 109L698 131L785 136L873 120L960 93L960 0L873 0L785 0L698 0L611 0L524 0L436 0L349 0L262 0L175 0L87 0L0 0Z" fill="#ffffff"></path><path d="M0 352L87 217L175 260L262 217L349 287L436 266L524 260L611 201L698 255L785 201L873 260L960 303L960 91L873 118L785 134L698 129L611 107L524 96L436 112L349 91L262 75L175 96L87 48L0 123Z" fill="#e6ecfa"></path><path d="M0 455L87 406L175 374L262 379L349 406L436 428L524 374L611 374L698 455L785 395L873 406L960 411L960 301L873 258L785 199L698 253L611 199L524 258L436 264L349 285L262 215L175 258L87 215L0 350Z" fill="#ccd9f5"></path><path d="M0 509L87 498L175 465L262 465L349 471L436 503L524 465L611 449L698 498L785 465L873 449L960 449L960 409L873 404L785 393L698 453L611 372L524 372L436 426L349 404L262 377L175 372L87 404L0 453Z" fill="#b2c7f0"></path><path d="M0 541L87 541L175 541L262 541L349 541L436 541L524 541L611 541L698 541L785 541L873 541L960 541L960 447L873 447L785 463L698 496L611 447L524 463L436 501L349 469L262 463L175 463L87 496L0 507Z" fill="#96b5ea"></path></svg>